<svg width="18" height="18" viewBox="0 0 18 18" fill="none" xmlns="http://www.w3.org/2000/svg">
<path fill-rule="evenodd" clip-rule="evenodd" d="M12.8897 6.69358C13.128 6.94334 13.1187 7.33895 12.8689 7.57722L8.28298 11.9522C8.04135 12.1827 7.66119 12.1826 7.41976 11.9519L5.1307 9.76435C4.88115 9.52587 4.87217 9.13025 5.11065 8.8807C5.34913 8.63115 5.74475 8.62217 5.99431 8.86065L7.85193 10.6359L12.0061 6.67278C12.2558 6.43451 12.6515 6.44383 12.8897 6.69358Z" fill="#1D9745"/>
<path fill-rule="evenodd" clip-rule="evenodd" d="M9 2.125C5.20304 2.125 2.125 5.20304 2.125 9C2.125 12.797 5.20304 15.875 9 15.875C12.797 15.875 15.875 12.797 15.875 9C15.875 5.20304 12.797 2.125 9 2.125ZM0.875 9C0.875 4.51269 4.51269 0.875 9 0.875C13.4873 0.875 17.125 4.51269 17.125 9C17.125 13.4873 13.4873 17.125 9 17.125C4.51269 17.125 0.875 13.4873 0.875 9Z" fill="#1D9745"/>
</svg>
